<svg id="visual" viewBox="0 0 900 900" width="900" height="900" xmlns="http://www.w3.org/2000/svg" xmlns:xlink="http://www.w3.org/1999/xlink" version="1.1"><g><g transform="translate(287 613)"><path d="M0 -130.1L112.7 -65L112.7 65L0 130.1L-112.7 65L-112.7 -65Z" fill="#ffffff03"></path></g><g transform="translate(757 698)"><path d="M0 -123L106.5 -61.5L106.5 61.5L0 123L-106.5 61.5L-106.5 -61.5Z" fill="#ffffff03"></path></g><g transform="translate(603 137)"><path d="M0 -87L75.3 -43.5L75.3 43.5L0 87L-75.3 43.5L-75.3 -43.5Z" fill="#ffffff03"></path></g><g transform="translate(283 155)"><path d="M0 -81L70.1 -40.5L70.1 40.5L0 81L-70.1 40.5L-70.1 -40.5Z" fill="#ffffff03"></path></g><g transform="translate(676 392)"><path d="M0 -122L105.7 -61L105.7 61L0 122L-105.7 61L-105.7 -61Z" fill="#ffffff03"></path></g></g></svg>